<svg xmlns="http://www.w3.org/2000/svg" xmlns:xlink="http://www.w3.org/1999/xlink" width="72" height="85" viewBox="0 0 72 85">
  <defs>
    <polygon id="u-a" points=".007 .683 3.646 .683 3.646 4.281 .007 4.281"/>
    <polygon id="u-c" points="0 .153 3.641 .153 3.641 3.747 0 3.747"/>
  </defs>
  <g fill="none" fill-rule="evenodd">
    <path fill="#4458FB" d="M38.8069,84.3169 C7.6759,84.3169 6.0939,61.5439 6.0939,56.9779 L6.0889,28.2909 L13.4819,28.1149 L13.2909,20.9649 L20.7459,20.8169 L20.5679,13.9769 L26.4189,13.7429 L26.6039,57.9599 C26.6039,68.3869 33.2409,70.5749 38.8069,70.5749 C46.4909,70.5749 51.0789,65.9539 51.0789,58.2109 L51.0299,6.8999 L71.3409,6.7239 L71.5249048,57.7359 C71.5269,60.6409 70.9089,68.0969 65.1729,74.5649 C59.4349,81.0369 50.5639,84.3169 38.8069,84.3169"/>
    <polygon fill="#4458FB" points="20.563 6.951 25.468 6.772 25.644 11.617 20.563 11.796"/>
    <polygon fill="#4458FB" points="13.775 11.486 13.599 7.257 17.881 7.082 18.057 11.486"/>
    <g transform="translate(14 .317)">
      <mask id="u-b" fill="#fff">
        <use xlink:href="#u-a"/>
      </mask>
      <polygon fill="#4458FB" points=".183 4.281 .007 .859 3.471 .683 3.646 4.281" mask="url(#u-b)"/>
    </g>
    <polygon fill="#4458FB" points=".537 10.724 .361 8.019 3.101 7.843 3.277 10.724"/>
    <polygon fill="#4458FB" points="6.264 26.096 6.088 21.251 10.993 21.075 11.169 26.096"/>
    <g transform="translate(0 14.317)">
      <mask id="u-d" fill="#fff">
        <use xlink:href="#u-c"/>
      </mask>
      <polygon fill="#4458FB" points=".176 3.747 0 .329 3.464 .153 3.641 3.747" mask="url(#u-d)"/>
    </g>
    <polygon fill="#4458FB" points="13.463 18.777 13.287 13.932 18.192 13.756 18.368 18.777"/>
    <polygon fill="#4458FB" points="6.576 18.47 6.4 14.239 10.681 14.063 10.859 18.47"/>
    <polygon fill="#4458FB" points="6.985 11.083 6.809 7.661 10.274 7.485 10.45 11.083"/>
    <polygon fill="#4458FB" points="7.173 1.534 9.912 1.358 10.088 4.063 7.173 4.242"/>
    <polygon fill="#4458FB" points=".984 3.801 .808 1.975 2.655 1.799 2.833 3.625 2.833 3.801"/>
  </g>
</svg>
