<?xml version="1.0" standalone="no"?>
<!DOCTYPE svg PUBLIC "-//W3C//DTD SVG 20010904//EN"
 "http://www.w3.org/TR/2001/REC-SVG-20010904/DTD/svg10.dtd">
<svg version="1.0" xmlns="http://www.w3.org/2000/svg"
 width="96.000000pt" height="96.000000pt" viewBox="0 0 96.000000 96.000000"
 preserveAspectRatio="xMidYMid meet">
<metadata>
Created by potrace 1.11, written by Peter Selinger 2001-2013
</metadata>
<g transform="translate(0.000000,96.000000) scale(0.100000,-0.100000)"
fill="#000000" stroke="none">
<path d="M152 944 c-15 -6 -37 -24 -47 -40 -19 -27 -20 -51 -21 -419 -1 -418
1 -436 49 -468 23 -15 62 -17 356 -17 299 0 331 2 350 17 46 39 48 55 47 367
l-1 296 -138 138 -138 138 -214 0 c-143 0 -224 -4 -243 -12z m365 -78 c4 -4 8
-67 8 -139 l0 -132 135 0 c74 0 137 -3 140 -7 3 -3 5 -115 4 -247 0 -215 -2
-242 -17 -253 -24 -18 -592 -17 -609 0 -9 9 -13 104 -13 370 0 196 2 368 6
382 4 18 14 26 35 30 45 8 302 5 311 -4z m238 -185 c-2 -5 -123 -6 -145 -2 -5
1 -5 55 -1 135 1 14 19 1 76 -54 40 -40 72 -76 70 -79z"/>
<path d="M255 540 c-19 -21 -19 -35 -1 -53 11 -10 47 -13 154 -13 77 1 143 3
145 6 12 13 16 46 7 60 -14 23 -284 23 -305 0z"/>
<path d="M255 380 c-13 -15 -11 -58 4 -61 3 -1 103 -3 221 -4 174 -1 218 1
232 12 15 14 17 48 2 62 -3 3 -104 6 -225 6 -188 1 -222 -1 -234 -15z"/>
<path d="M255 220 c-17 -19 -9 -58 14 -64 24 -6 439 -2 446 5 11 11 13 45 4
60 -7 11 -50 14 -229 14 -189 1 -223 -1 -235 -15z"/>
</g>
</svg>
