<?xml version="1.0" standalone="no"?>
<!DOCTYPE svg PUBLIC "-//W3C//DTD SVG 20010904//EN"
 "http://www.w3.org/TR/2001/REC-SVG-20010904/DTD/svg10.dtd">
<svg version="1.0" xmlns="http://www.w3.org/2000/svg"
 width="680.000000pt" height="680.000000pt" viewBox="0 0 680.000000 680.000000"
 preserveAspectRatio="xMidYMid meet">
<metadata>
Created by potrace 1.11, written by Peter Selinger 2001-2013
</metadata>
<g transform="translate(0.000000,680.000000) scale(0.100000,-0.100000)"
fill="#000000" stroke="none">
<path d="M1135 6680 l-40 -5 0 -105 0 -105 75 3 c41 1 93 3 115 5 45 3 42 -11
32 142 l-4 70 -69 0 c-38 0 -87 -2 -109 -5z"/>
<path d="M698 6654 c-2 -1 -23 -3 -48 -5 -60 -3 -69 -11 -61 -57 4 -20 6 -49
6 -64 -1 -30 2 -31 75 -30 87 1 81 -4 74 55 -4 28 -8 59 -10 67 -1 8 -3 20 -3
26 -1 9 -26 15 -33 8z"/>
<path d="M6136 6263 c-1 -1 -332 -5 -736 -8 -404 -4 -748 -8 -765 -8 l-30 -2
-1 -2110 c0 -1160 -3 -2130 -7 -2155 -6 -39 -12 -73 -33 -179 -3 -13 -10 -34
-16 -45 -6 -12 -11 -23 -10 -26 0 -3 -8 -25 -19 -49 -10 -24 -19 -45 -19 -47
0 -12 -82 -137 -111 -169 -74 -81 -93 -98 -164 -145 -69 -47 -201 -110 -240
-115 -5 -1 -30 -7 -55 -14 -86 -25 -151 -32 -290 -35 -445 -8 -767 171 -903
504 -28 69 -63 192 -71 250 -2 19 -5 35 -6 35 -7 0 -11 277 -15 1100 -7 1138
-6 976 -5 1055 1 68 1 151 0 185 -2 167 -2 204 4 213 3 6 3 13 -1 15 -5 3 -8
271 -8 596 l0 592 -160 -7 c-88 -4 -187 -8 -220 -9 -33 -2 -67 -3 -75 -4 -13
-1 -15 -15 -13 -83 2 -46 4 -168 5 -273 l3 -189 -105 -3 c-58 -1 -186 -4 -285
-6 -99 -2 -185 -6 -191 -10 -8 -4 -10 -40 -8 -104 2 -54 6 -180 8 -280 l4
-183 -42 -1 c-22 0 -113 -2 -201 -4 -88 -2 -202 -4 -253 -5 -87 -2 -92 -3 -93
-23 -4 -95 1 -2377 5 -2427 8 -96 16 -162 22 -190 3 -14 8 -38 10 -55 3 -16 6
-39 9 -50 2 -11 5 -23 5 -27 1 -4 11 -40 21 -80 11 -40 21 -80 23 -88 10 -39
60 -176 69 -187 5 -7 6 -13 3 -13 -4 0 -1 -10 6 -23 7 -12 13 -24 13 -27 5
-31 189 -357 215 -380 3 -3 21 -25 40 -50 60 -78 73 -92 160 -180 47 -48 112
-108 145 -133 33 -26 71 -56 85 -68 85 -68 343 -209 480 -261 36 -14 74 -29
85 -33 11 -5 23 -9 28 -10 4 -2 9 -4 12 -5 5 -3 6 -3 50 -15 17 -4 36 -12 43
-18 6 -5 12 -7 12 -4 0 4 18 0 40 -8 22 -8 40 -12 40 -9 0 2 8 0 19 -5 10 -6
33 -13 52 -16 19 -3 50 -10 69 -15 19 -5 46 -11 60 -14 103 -18 150 -26 185
-30 143 -19 140 -19 325 -32 123 -9 447 -9 575 0 170 12 209 15 235 20 14 2
45 7 70 10 40 5 107 17 180 31 107 21 137 27 150 32 8 3 22 7 30 8 52 7 296
88 353 117 20 10 37 16 37 13 0 -7 262 127 278 142 7 7 19 13 27 13 7 0 15 3
17 8 2 4 36 29 77 56 40 27 78 54 85 60 6 6 29 24 51 41 117 87 316 312 417
470 105 165 209 403 248 565 6 25 13 54 16 65 15 55 44 243 50 321 5 78 8 324
4 424 0 19 0 100 0 179 1 78 -1 145 -3 148 -3 2 -1 17 3 33 4 16 5 31 2 35 -7
7 -4 144 4 156 3 5 1 9 -3 9 -5 0 -7 15 -6 33 1 17 2 43 3 57 0 14 -1 448 -4
965 -2 517 -5 1217 -6 1556 -1 338 -4 619 -8 625 -6 7 -79 14 -86 7z"/>
<path d="M2356 6253 c-1 -2 -44 -4 -94 -5 -52 -2 -93 -7 -93 -13 -1 -5 -2 -92
-3 -192 l-1 -183 35 -1 c19 -1 40 0 45 1 9 2 163 7 283 9 l42 1 -5 163 c-5
140 -8 189 -14 218 -1 6 -189 7 -195 2z"/>
<path d="M1940 6236 c-3 -3 -73 -7 -155 -10 -83 -3 -156 -5 -163 -5 -11 -1
-12 -33 -8 -162 4 -89 8 -165 11 -169 3 -5 81 -8 173 -8 l167 0 0 29 c1 16 -2
29 -5 29 -3 0 -5 55 -5 123 0 123 -5 183 -15 173z"/>
<path d="M1109 6192 l-46 -3 4 -42 c2 -35 9 -157 12 -218 1 -14 19 -16 139
-15 l137 1 -4 85 c-4 92 -8 180 -10 192 -1 7 -123 7 -232 0z"/>
<path d="M572 6162 c-22 -3 -23 -5 -17 -105 4 -62 11 -104 18 -109 6 -4 56 -7
110 -6 l98 1 -5 81 c-2 45 -5 96 -5 114 l-1 33 -87 -3 c-49 -2 -98 -4 -111 -6z"/>
<path d="M1723 5693 c-5 -1 -37 -4 -73 -5 l-65 -3 3 -120 c4 -135 9 -258 11
-265 1 -4 276 -4 373 -1 17 1 18 13 12 164 -4 89 -7 178 -8 197 l-1 35 -122 0
c-68 0 -126 -1 -130 -2z"/>
<path d="M1317 5674 c-1 -1 -63 -5 -137 -8 -74 -3 -138 -5 -141 -5 -3 -1 -4
-49 -2 -108 3 -60 5 -134 5 -165 1 -34 6 -59 12 -60 6 -1 84 -2 174 -3 l162
-1 -6 111 c-3 60 -6 138 -7 173 -1 34 -4 62 -7 63 -24 4 -50 5 -53 3z"/>
<path d="M1348 5115 c-2 -2 -77 -5 -167 -9 -90 -3 -166 -7 -169 -10 -3 -3 -4
-36 -3 -73 5 -130 9 -258 10 -284 l1 -26 195 0 c142 -1 195 2 196 10 1 23 -8
360 -10 378 -1 7 -48 18 -53 14z"/>
</g>
</svg>
